<svg xmlns="http://www.w3.org/2000/svg" preserveAspectRatio="xMidYMid meet" viewBox="0 0 331 395">
<!-- width="331"height="395" -->
 <g>
  <!-- <rect fill="none" id="canvas_background" height="397" width="333" y="-1" x="-1"/> -->
 </g>
 <g>
  <ellipse ry="170.23338" rx="72.74291" cy="200.73041" cx="230.24369" stroke-opacity="null" stroke-width="null" stroke="null" fill="#ffffff"/>
  <ellipse ry="170.23338" rx="72.74291"  cy="198.23065" cx="103.75603" stroke-opacity="null" stroke-width="null" stroke="null" fill="#ffffff"/>
  <path d="m224.5156,1.74414c-6.4,1.6 -14.8,4.9 -20,8.1c-11.5,6.9 -26,22.7 -35.1,38.1c-3.5,6.1 -3.8,6.4 -5.1,4.5c-0.7,-1 -4.1,-6.2 -7.5,-11.4c-7,-10.9 -21.5,-25.8 -29.9,-30.8c-10.3,-6.1 -16.2,-7.7 -28.4,-7.7c-12.2,0 -18.1,1.6 -28.3,7.7c-8,4.8 -20.9,17.4 -28.1,27.5c-7.7,10.8 -19.7,35 -24.6,49.8c-5.3,16.1 -10.2,36.7 -13.1,56c-3.6,23 -4.5,68.9 -2,92.5c6.8,62.1 25,109.6 52.6,137c25.8,25.5 53.5,27.6 80.4,5.9c9.7,-7.8 19.5,-20.1 29.2,-36.5c0.9,-1.6 1.4,-1.1 4.3,4c5.4,9.4 14.3,20.7 22.2,28.1c13.1,12.2 24.4,17.5 39.2,18.3c16.4,0.9 31,-5.8 46.3,-21.2c26.8,-26.8 44.8,-73.9 51.9,-136.1c2,-17.6 2,-60.6 0,-78.5c-4.4,-38.5 -12.5,-68.8 -25.5,-95.5c-9.2,-18.9 -15.6,-28.2 -26.9,-39.5c-7.8,-7.7 -11.2,-10.3 -18.1,-13.8c-12.5,-6.2 -24.8,-8.6 -33.5,-6.5zm-106.9,46.9c15.1,10.1 32.6,38.7 27.4,44.9c-1,1.2 -3,1.4 -11,0.9c-8.9,-0.6 -10.2,-0.5 -14.5,1.6c-11.7,5.6 -14.6,22.1 -7,38.7c1.4,3 6,10.3 10.3,16.1c4.3,5.9 9.6,13.6 11.7,17.2c2.1,3.6 4.3,7.2 5,8c1.8,2.3 6.5,13.9 8.1,19.8c3.6,13.5 2.7,22.6 -3.3,34.9c-2.7,5.7 -6.6,10.5 -18.1,22.9c-21.9,23.3 -29.1,35.3 -29.2,47.7c0,7.6 2.9,12.1 10.1,15.7c5.1,2.6 7.6,3.2 16,3.7c8.3,0.5 10.2,0.9 11,2.5c1.6,3 -2.2,9.9 -9.4,17.2c-6.7,6.7 -12.2,10 -21.5,13.1c-5.2,1.7 -5.3,1.7 -10,-0.7c-9.4,-4.7 -16.8,-18.3 -29.9,-55.3c-4.9,-13.7 -5,-16.4 -1.7,-28.1c4.6,-16.3 15.9,-36.7 30.9,-55.9c4.1,-5.3 7.5,-10 7.5,-10.6c0,-0.6 -2.4,-4.8 -5.3,-9.2c-10,-15.3 -12.4,-19.2 -16.6,-27.2c-13.4,-25.2 -20.5,-48.4 -18,-58.9c3.9,-16.6 14.5,-37.5 24.8,-48.9c10.4,-11.5 24.2,-15.8 32.7,-10.1zm116.9,0.7c6.5,3.3 10.5,6.8 16.7,14.6c8.8,11 17.9,30.3 20.8,44.1c3.1,14.6 -8.5,45.7 -29.3,78c-4.4,6.9 -8.7,13.6 -9.5,15c-1.4,2.5 -1.3,2.8 6.3,12.5c20,25.5 33.3,53 33.5,68.9c0,6.8 -13.8,43.9 -21.2,56.7c-5.1,8.8 -9.6,13.5 -14.6,15c-3.7,1.1 -4.8,0.9 -10.4,-1.1c-14.4,-5.2 -28.8,-19.1 -28.8,-27.7c0,-3.8 0.3,-3.9 13.1,-4.7c9.9,-0.6 16.4,-3.1 20.4,-7.8c3.2,-3.8 3.9,-6.6 3.3,-14.1c-0.9,-11.1 -8.7,-23.6 -26.5,-42.5c-15,-16 -17.7,-19.4 -21.5,-27.3c-2.7,-5.5 -3.2,-7.8 -3.6,-16.2c-0.5,-10.2 0.3,-14.8 4.1,-24.7c2.8,-7.2 11.8,-22.3 19.8,-33.4c14.1,-19.4 17.5,-27.5 16.7,-39.6c-0.7,-9.4 -4,-14.9 -11,-18.4c-5.7,-2.9 -8.6,-3.1 -17.2,-1.5c-5.1,0.9 -6,0.8 -7.8,-0.8c-1.6,-1.4 -1.9,-2.5 -1.4,-5.6c1.9,-11.5 19.9,-36.1 30,-40.7c4.8,-2.2 12.3,-1.7 18.1,1.3z"/>
 </g>
</svg>